PathFileType	4	(X/Y/Z)	path1_20_0-911.trc
DataRate	CameraRate	NumFrames	NumMarkers	Units	OrigDataRate	OrigDataStartFrame	OrigNumFrames
30	30	6	22	m	30	683	911
Frame#	Time	Hip			RHip			RKnee			RAnkle			RBigToe			RSmallToe			RHeel			LHip			LKnee			LAnkle			LBigToe			LSmallToe			LHeel			Neck			Head			Nose			RShoulder			RElbow			RWrist			LShoulder			LElbow			LWrist		
		X1	Y1	Z1	X2	Y2	Z2	X3	Y3	Z3	X4	Y4	Z4	X5	Y5	Z5	X6	Y6	Z6	X7	Y7	Z7	X8	Y8	Z8	X9	Y9	Z9	X10	Y10	Z10	X11	Y11	Z11	X12	Y12	Z12	X13	Y13	Z13	X14	Y14	Z14	X15	Y15	Z15	X16	Y16	Z16	X17	Y17	Z17	X18	Y18	Z18	X19	Y19	Z19	X20	Y20	Z20	X21	Y21	Z21	X22	Y22	Z22
684	22.8	-2.4361320817766425	0.7979973752293563	0.7778167814804536	-2.439361886209809	0.7532294476742125	0.692983086862016	-2.385078321818243	0.4267155406972711	0.6824637679092254	-2.3327229514080643	0.06683220491216764	0.6965303014735708	-2.511969312146464	-0.02465264146720679	0.694587688536257	-2.4826300241932544	-0.038299537111738974	0.6448536942429257	-2.288943791467326	-0.0002371097566341461	0.7094517733151614	-2.424108969956255	0.7529261801896263	0.8592041008289825	-2.4018328743750983	0.40009102928818024	0.8509890911608006	-2.3324951769079636	0.05730544502279555	0.829201539513705	-2.4968220892459896	-0.022677467203190124	0.8482556764506537	-2.543326312899319	-0.04832098699597841	0.8651205563709353	-2.2880222713452167	-0.009649746792126941	0.8219494269278494	-2.4348658360983215	1.4322511123596031	0.7904515942482263	-2.5178282714556612	1.6385029477929287	0.8073613941445108	-2.563857414967416	1.4914831819634577	0.8414160750753459	-2.4069285994330594	1.3275267723937674	0.6124365138889287	-2.3621798929268056	1.052449175710646	0.5579797517344095	-2.3942879302205857	0.8069487178469057	0.5359313958139206	-2.415782141261594	1.3098239832341845	0.9735853977686125	-2.4225672376806777	1.0431061932729244	1.0035248992145749	-2.467228814114811	0.8027639039740536	1.0138692492372812
685	22.83333333333333	-2.4356124808814217	0.7983982932152998	0.7778645588480925	-2.4392289681116566	0.7526691378531485	0.6926662375983385	-2.3850770644600336	0.42689645674858673	0.6820357898779369	-2.3328677939284694	0.06681382648925241	0.696715085919205	-2.512095714974439	-0.02438858438599623	0.6946531653461551	-2.48285467202799	-0.03800114438040478	0.6439320338602192	-2.289301656814594	-0.0003265467629458332	0.7096123947418049	-2.4234635926753967	0.7524750573424621	0.8586957911155644	-2.410890448612417	0.4009970853107307	0.8525698082840392	-2.3320515243639344	0.057457785715486445	0.829107552741706	-2.496893976750564	-0.02212660497883085	0.848531025744985	-2.5389055919786103	-0.046786949774904434	0.866865578113446	-2.2877585099774986	-0.009689991702166802	0.8217659474724122	-2.4351446550488527	1.4320407459231626	0.7906977967990786	-2.5140220199090964	1.6365907548886696	0.8095782697877337	-2.564041239059021	1.491862724791432	0.8406373114565698	-2.4070094731257097	1.3275742476844037	0.6126698837357947	-2.3622580531004473	1.0527663547240216	0.5581556614719878	-2.3942087655461943	0.8075077030088244	0.5362307458772128	-2.41614899941024	1.309320377328925	0.9738061018472008	-2.42246727419145	1.0434779513433161	1.0034161571214237	-2.4670520765007717	0.8029200106789489	1.0140778150949332
686	22.866666666666667	-2.434956521289304	0.7987467831594728	0.7778203750129221	-2.439145533831747	0.7522316713404874	0.6921568789046334	-2.3850330150129713	0.4271059910246482	0.6815408044916298	-2.3329736548821813	0.06678817728735865	0.6969720270668796	-2.51208300416651	-0.02407953796876	0.6945832135296539	-2.483049005357108	-0.03763899020191165	0.6433574987506353	-2.289500892303274	-0.00047375742096073247	0.7098476270072055	-2.4226958233637155	0.7519913162311999	0.8581896524207638	-2.4188584435808336	0.40184163254306837	0.8539108593588847	-2.331825389150738	0.057406586614958344	0.8290756845838861	-2.4970300383709065	-0.021805119683594117	0.8489131794786984	-2.536474331723391	-0.04592806621292621	0.8683395877808118	-2.287787554880066	-0.009803876202304353	0.8216473081292862	-2.4355124257914276	1.4319310133412602	0.7911104503636701	-2.5127515071892415	1.6361112116301528	0.809990404247404	-2.5641044398318096	1.4921719111265797	0.8402914333025485	-2.407126003420623	1.327653440245175	0.6130204803121101	-2.3623382530241863	1.0532069341804136	0.5582110049098924	-2.394151136612851	0.8080799622759682	0.5366189834622197	-2.4166755857680053	1.3089226699908092	0.9742540396238982	-2.4223404802470787	1.04403353788016	1.0033493506726159	-2.466923163434592	0.8030208663809388	1.0143851690441013
687	22.9	-2.434355122851104	0.7989326283695934	0.777721564074372	-2.4391558374897335	0.7519310410905945	0.6916190488348838	-2.3849714051389426	0.42737870989833127	0.6810875688382136	-2.3330116866035286	0.06676479901014412	0.6972609774425881	-2.511923821375829	-0.023745935314082936	0.694433373830513	-2.483182832110407	-0.03726595616189868	0.6432950946223661	-2.2895204398537596	-0.0006893699522437392	0.7101572128362718	-2.422011969122623	0.751544584281766	0.8578123913849732	-2.4244302281714782	0.40250621299102907	0.8548435971704276	-2.3318929911956445	0.05720222719975871	0.8291483408320401	-2.4971408922674687	-0.021728794683250882	0.8492865546613103	-2.5361050167622983	-0.04584248618849515	0.8693857352715636	-2.2881715525649047	-0.009968082081794146	0.8216310170799167	-2.4359122189858873	1.4319784427077495	0.7916544448837507	-2.5143860782638656	1.6372491624259053	0.8083652953048817	-2.564076227653067	1.4923724746372247	0.840659307839165	-2.407317355699997	1.3277009706057958	0.6134767293390149	-2.3624735766427203	1.0536308488428046	0.5582445328375802	-2.394202087248885	0.8085247185477664	0.5371062352896842	-2.4172031002048446	1.3086768832754876	0.9748529400009687	-2.4222697661978647	1.0446102695272603	1.003382581511619	-2.466836484176376	0.8028988866755545	1.0147171713935126
688	22.933333333333334	-2.433953467302615	0.7988988033032778	0.7776261244782813	-2.439179598808098	0.7516862011814298	0.691304785683484	-2.384909393267543	0.4277178586152842	0.6807585795862293	-2.3329541828271334	0.06674985263352207	0.6975435905454873	-2.51164869294545	-0.023354410312052706	0.6942753013046546	-2.483238594872097	-0.036849215704166834	0.6437169174549225	-2.2893882639762153	-0.0008755110246538126	0.7104715368954733	-2.421563936534926	0.7511182793158205	0.8577073553676157	-2.427469036352436	0.4029969947323128	0.8554249301449991	-2.3322814927225037	0.056908098415530343	0.8293440150084802	-2.4971749133887435	-0.021864047252264554	0.849567923567541	-2.534765572843927	-0.04573310313813686	0.8707437810483549	-2.2889388340162546	-0.010186433834191686	0.8217642684126891	-2.436281473770361	1.4321468705143567	0.7922447604873457	-2.517433261852354	1.6391324997467722	0.8057086110102594	-2.564023608376588	1.4924304096813903	0.8416884649749112	-2.4075618377469508	1.3276752998823993	0.6139785462963935	-2.3626623800096196	1.053959936294522	0.5583637367639042	-2.3944040572105227	0.8087743414139466	0.5376412095962806	-2.4176324762856027	1.3085439660673346	0.97550550834685	-2.4223224622686548	1.0450473642008942	1.0035419473558997	-2.466770806877242	0.8025174195696941	1.0150222848645993
689	22.966666666666665	-2.4338035355996155	0.7986594930383415	0.7775792712939128	-2.4391083434527676	0.751408606924256	0.6913772244470083	-2.3848584369691683	0.4280673131632387	0.6805821659605672	-2.332801249791098	0.06675904323571978	0.6977890016641584	-2.5112911427099847	-0.022902555450764497	0.6941330982883834	-2.4832147490805596	-0.03636272521337451	0.6443896143672151	-2.2891518019130856	-0.0009043537892258569	0.7107017286976751	-2.4213945097600327	0.7506845567793723	0.8579207349063136	-2.428489651452474	0.4033518155062535	0.855773696117833	-2.3329172403820206	0.05658016207917514	0.8296440658275787	-2.4971411467870275	-0.022105240905917284	0.849691141440529	-2.5284951573376433	-0.044482478602776064	0.8734307044542522	-2.2899900817696	-0.010489441987872355	0.8220389859889211	-2.4365646237650003	1.4323329292290912	0.7927603617653918	-2.521713773879064	1.6415846815700583	0.8022838857625638	-2.564037759033404	1.4923378430843308	0.8428962960822579	-2.407781024232327	1.3275824852666793	0.6144393161789042	-2.36283999441088	1.0541934392542966	0.558574157235058	-2.3947140574692565	0.8088343677409743	0.5381167133870324	-2.417957886502279	1.3084322220322966	0.9761065359579739	-2.4225301712203677	1.045268567599581	1.0037842395240908	-2.4667293281796434	0.8019792817916737	1.0152908674073857
